<?xml version="1.0" standalone="no"?>
<!DOCTYPE svg PUBLIC "-//W3C//DTD SVG 20010904//EN"
 "http://www.w3.org/TR/2001/REC-SVG-20010904/DTD/svg10.dtd">
<svg version="1.0" xmlns="http://www.w3.org/2000/svg"
 width="512.000000pt" height="512.000000pt" viewBox="0 0 512.000000 512.000000"
 preserveAspectRatio="xMidYMid meet">
<metadata>
Created by potrace 1.14, written by Peter Selinger 2001-2017
</metadata>
<g transform="translate(0.000000,512.000000) scale(0.100000,-0.100000)"
fill="#000000" stroke="none">
<path d="M2319 4936 c-2 -2 -35 -7 -74 -10 -38 -4 -95 -11 -125 -16 -30 -5
-72 -12 -94 -16 -69 -10 -289 -73 -386 -111 -141 -54 -389 -176 -398 -195 -2
-5 -7 -8 -12 -8 -16 0 -155 -97 -256 -177 -331 -266 -609 -645 -749 -1023 -15
-41 -31 -84 -36 -95 -26 -61 -75 -263 -104 -430 -20 -118 -27 -463 -12 -610
23 -231 97 -508 195 -731 283 -642 839 -1136 1512 -1346 52 -16 115 -33 140
-39 141 -30 265 -51 340 -57 111 -9 396 -9 485 0 79 9 255 37 264 42 3 2 24 7
46 10 22 4 54 11 70 16 310 97 448 157 654 282 139 85 301 212 431 339 58 57
86 87 180 195 44 50 165 225 220 319 169 288 287 652 318 982 13 140 6 460
-12 583 -22 148 -57 297 -103 435 -41 125 -127 322 -172 396 -17 27 -31 52
-31 55 0 3 -33 56 -74 117 -303 454 -714 774 -1239 964 -37 13 -76 26 -85 28
-9 3 -60 16 -113 29 -185 49 -329 67 -560 71 -119 3 -218 3 -220 1z"/>
</g>
</svg>
